<?xml version="1.0" standalone="no"?>
<!DOCTYPE svg PUBLIC "-//W3C//DTD SVG 20010904//EN"
 "http://www.w3.org/TR/2001/REC-SVG-20010904/DTD/svg10.dtd">
<svg version="1.0" xmlns="http://www.w3.org/2000/svg"
 width="2550.000000pt" height="2550.000000pt" viewBox="0 0 2550.000000 2550.000000"
 preserveAspectRatio="xMidYMid meet">
<metadata>
Created by potrace 1.11, written by Peter Selinger 2001-2013
</metadata>
<g transform="translate(0.000000,2550.000000) scale(0.100000,-0.100000)"
fill="#000000" stroke="none">
<path d="M0 12750 l0 -12750 12750 0 12750 0 0 12750 0 12750 -12750 0 -12750
0 0 -12750z m12881 11390 c124 -23 265 -127 317 -233 13 -25 433 -1186 934
-2579 879 -2446 910 -2536 915 -2618 12 -195 -83 -363 -251 -445 -76 -37 133
7 -3174 -666 -486 -98 -898 -179 -916 -179 -201 0 -381 129 -447 321 -29 86
-29 210 -1 294 85 247 2105 5841 2122 5875 12 24 48 70 79 101 114 113 263
159 422 129z m2704 -7425 c106 -30 215 -114 270 -210 36 -62 1465 -4051 1478
-4123 23 -142 -34 -304 -143 -405 -179 -166 -434 -171 -625 -14 -317 262
-4023 3418 -4054 3453 -199 226 -114 602 164 725 40 18 2622 579 2726 592 47
6 124 -2 184 -18z m-5922 -1676 c34 -11 82 -34 106 -51 102 -68 3661 -2915
3717 -2973 98 -100 141 -216 131 -354 -14 -196 -141 -355 -330 -413 l-71 -21
-2400 12 c-1532 7 -2417 15 -2445 22 -82 18 -154 60 -221 128 -120 121 -165
273 -126 431 18 76 1040 2911 1076 2985 54 112 145 192 265 234 83 28 214 28
298 0z m7992 -4144 c127 -33 253 -131 303 -237 12 -24 434 -1190 938 -2593
891 -2480 916 -2552 921 -2636 7 -106 -17 -194 -75 -285 -48 -74 -95 -114
-191 -162 -68 -34 -83 -37 -175 -40 -113 -4 -195 16 -271 67 -81 55 -4201
3297 -4233 3331 -18 19 -48 67 -67 105 -78 158 -65 325 36 477 34 49 181 166
1244 985 663 511 1224 939 1248 951 101 50 218 64 322 37z m-7200 -1665 c2663
-66 2824 -71 2885 -90 82 -24 175 -84 223 -142 20 -24 51 -75 69 -114 28 -60
33 -82 36 -167 4 -80 1 -109 -17 -165 -46 -142 248 105 -4222 -3545 -2268
-1853 -4152 -3388 -4186 -3413 -185 -135 -427 -122 -591 31 -69 64 -116 139
-137 220 -18 69 -20 173 -4 230 21 74 2498 6944 2520 6987 27 54 112 143 165
174 90 53 139 63 294 64 80 0 1414 -31 2965 -70z"/>
</g>
</svg>
